<svg width="54" height="12" viewBox="0 0 54 12" fill="none" xmlns="http://www.w3.org/2000/svg">
<g clip-path="url(#clip0_305_26363)">
<path d="M4.24707 12.1172H3.62695V8.86035H4.24707V12.1172ZM5.33398 12.1172H4.71387V8.86035H5.33398V12.1172ZM7.04004 9.79102H6.10938V8.86035H7.04004V9.79102ZM2.85156 9.79004H1.9209V7.46387H2.85156V9.79004ZM5.33398 7.46387H4.71387V8.85938H4.24805V6.99805H5.33398V7.46387ZM6.11035 7.46387H7.04004V8.85938H6.10938V7.46387H5.33496V6.99805H6.11035V7.46387ZM4.24707 7.46387H2.85156V6.99805H4.24707V7.46387ZM4.24707 5.60156H3.62695V3.58496H2.85156V2.34375H4.24707V5.60156ZM5.33398 5.60156H4.24805V2.34375H5.33398V5.60156ZM6.11035 3.58496H5.33496V2.34375H6.11035V3.58496Z" fill="black"/>
</g>
<g clip-path="url(#clip1_305_26363)">
<path d="M13.2471 12.1172H11.8516V10.877H12.627V8.86035H13.2471V12.1172ZM14.334 12.1172H13.7139V8.86035H14.334V12.1172ZM15.1104 12.1172H14.335V10.877H15.1104V12.1172ZM10.9219 9.79102H9.83594V8.86035H10.9219V9.79102ZM17.127 9.79004H16.041V8.85938H17.127V9.79004ZM11.8516 8.85938H10.9209V7.46387H11.8516V8.85938ZM14.334 7.46387H13.7139V8.85938H13.248V6.99805H14.334V7.46387ZM15.1104 7.46387H16.04V8.85938H15.1094V7.46387H14.335V6.99805H15.1104V7.46387ZM13.2471 7.46387H11.8516V6.99805H13.2471V7.46387ZM13.2471 5.60156H12.627V3.58496H11.8516V2.34375H13.2471V5.60156ZM14.334 5.60156H13.248V2.34375H14.334V5.60156ZM15.1104 3.58496H14.335V2.34375H15.1104V3.58496Z" fill="black"/>
</g>
<g clip-path="url(#clip2_305_26363)">
<path d="M21.627 12.1172H19.9209V10.877H21.627V12.1172ZM25.04 10.877V12.1172H23.335V10.877H25.04ZM22.2471 10.877H21.627V8.86035H22.2471V10.877ZM23.334 10.877H22.7139V8.86035H23.334V10.877ZM20.8516 8.85938H18.8359V8.08398H19.9209V7.46387H20.8516V8.85938ZM23.334 7.46387H22.7139V8.85938H22.248V6.99805H23.334V7.46387ZM24.1104 7.46387H25.04V8.85938H24.1094V7.46387H23.335V6.99805H24.1104V7.46387ZM26.127 8.85938H25.041V8.08398H26.127V8.85938ZM22.2471 7.46387H20.8516V6.99805H22.2471V7.46387ZM22.2471 5.60156H21.627V3.58496H20.8516V2.34375H22.2471V5.60156ZM23.334 5.60156H22.248V2.34375H23.334V5.60156ZM24.1104 3.58496H23.335V2.34375H24.1104V3.58496Z" fill="black"/>
</g>
<g clip-path="url(#clip3_305_26363)">
<path d="M31.2471 10.877H30.627V12.1172H28.9209V10.877H29.8516V9.79102H30.627V8.86035H31.2471V10.877ZM33.1104 10.877H34.04V12.1172H32.335V9.79102H33.1104V10.877ZM32.334 10.877H31.7139V8.86035H32.334V10.877ZM32.334 7.46387H31.7139V8.85938H31.248V6.99805H32.334V7.46387ZM31.2471 7.46387H28.9219V8.08398H27.8359V6.99805H31.2471V7.46387ZM35.127 8.08398H34.041V6.99805H35.127V8.08398ZM34.04 7.46387H32.335V6.99805H34.04V7.46387ZM31.2471 5.60156H30.627V3.58496H29.8516V2.34375H31.2471V5.60156ZM32.334 5.60156H31.248V2.34375H32.334V5.60156ZM33.1104 3.58496H32.335V2.34375H33.1104V3.58496Z" fill="black"/>
</g>
<path d="M39.627 11.1172H37.9209V9.87695H38.8516V8.79102H39.627V11.1172ZM42.1104 9.87695H43.04V11.1172H41.335V8.79102H42.1104V9.87695ZM40.2471 8.79102H39.627V7.86035H40.2471V8.79102ZM41.334 8.79102H40.7139V7.86035H41.334V8.79102ZM41.334 6.46387H40.7139V7.85938H40.248V5.99805H41.334V6.46387ZM37.9219 5.99805H40.2471V6.46387H36.8359V5.37793H37.9219V5.99805ZM43.04 6.46387H41.335V5.99805H43.04V6.46387ZM44.127 6.46387H43.041V5.37793H44.127V6.46387ZM40.2471 4.60156H39.627V2.58496H38.8516V1.34375H40.2471V4.60156ZM41.334 4.60156H40.248V1.34375H41.334V4.60156ZM42.1104 2.58496H41.335V1.34375H42.1104V2.58496Z" fill="black"/>
<path d="M47.8516 10.1172H46.9209V8.87695H47.8516V10.1172ZM52.04 10.1172H51.1094V8.87695H50.335V7.79102H51.1104V8.87695H52.04V10.1172ZM48.627 8.87695H47.8516V7.79102H48.627V8.87695ZM49.2471 7.79102H48.627V6.86035H49.2471V7.79102ZM50.334 7.79102H49.7139V6.86035H50.334V7.79102ZM50.334 5.46387H49.7139V6.85938H49.248V4.99805H50.334V5.46387ZM49.2471 5.46387H47.8516V4.99805H49.2471V5.46387ZM52.04 4.99805H51.1104V5.46387H50.335V4.99805H51.1094V4.37793H52.04V4.99805ZM46.9219 4.37793H47.8516V4.99805H46.9209V4.37793H45.8359V3.60254H46.9219V4.37793ZM53.127 4.37793H52.041V3.60156H53.127V4.37793ZM49.2471 3.60156H48.627V1.58496H47.8516V0.34375H49.2471V3.60156ZM50.334 3.60156H49.248V0.34375H50.334V3.60156ZM51.1104 1.58496H50.335V0.34375H51.1104V1.58496Z" fill="black"/>
<defs>
<clipPath id="clip0_305_26363">
<rect width="9" height="12" fill="white"/>
</clipPath>
<clipPath id="clip1_305_26363">
<rect width="9" height="12" fill="white" transform="translate(9)"/>
</clipPath>
<clipPath id="clip2_305_26363">
<rect width="9" height="12" fill="white" transform="translate(18)"/>
</clipPath>
<clipPath id="clip3_305_26363">
<rect width="9" height="12" fill="white" transform="translate(27)"/>
</clipPath>
</defs>
</svg>
