<svg width="84" height="48" viewBox="0 0 84 48" fill="none" xmlns="http://www.w3.org/2000/svg">
<g clip-path="url(#clip0_308_26506)">
<path d="M65.1984 36.0001C64.7984 36.0001 64.3984 35.5001 64.0984 34.8001L59.7984 23.4001C59.0984 21.6001 58.8984 21.1001 58.1984 21.0001H57.4984C57.0984 20.9001 56.8984 20.8001 56.8984 20.2001C56.8984 19.6001 57.0984 19.4001 57.4984 19.5001C58.4984 19.5001 59.9984 19.6001 60.9984 19.6001C61.9984 19.6001 63.1984 19.6001 64.1984 19.5001C64.5984 19.5001 64.7984 19.5001 64.7984 20.2001C64.7984 20.9001 64.5984 20.9001 64.1984 21.0001H62.9984C62.6984 21.0001 62.3984 21.2001 62.3984 21.6001C62.3984 22.0001 62.5984 22.7001 62.9984 23.6001C63.9984 26.4001 64.7984 29.2001 65.7984 32.2001C66.1984 31.2001 68.1984 26.0001 68.4984 25.2001C69.0984 23.6001 69.1984 23.0001 69.1984 22.4001C69.1984 21.5001 68.5984 21.1001 67.8984 21.0001H67.1984C66.7984 20.9001 66.5984 20.8001 66.5984 20.2001C66.5984 19.6001 66.7984 19.4001 67.1984 19.5001C68.1984 19.5001 69.5984 19.6001 70.5984 19.6001C71.5984 19.6001 72.5984 19.6001 73.5984 19.5001C73.9984 19.5001 74.1984 19.5001 74.1984 20.2001C74.1984 20.9001 73.9984 20.9001 73.5984 21.0001H72.2984C71.7984 21.1001 71.6984 21.6001 71.6984 21.9001C71.6984 22.4001 71.7984 23.0001 72.0984 23.9001L74.8984 31.9001C76.0984 28.8001 77.4984 25.2001 78.0984 23.6001C78.4984 22.4001 78.5984 22.0001 78.5984 21.6001C78.5984 21.2001 78.3984 21.1001 77.9984 21.1001H76.7984C76.3984 21.0001 76.1984 20.9001 76.1984 20.3001C76.1984 19.7001 76.3984 19.5001 76.7984 19.5001C77.7984 19.6001 78.4984 19.6001 79.8984 19.6001C81.2984 19.6001 81.4984 19.6001 82.4984 19.5001C82.8984 19.5001 83.0984 19.5001 83.0984 20.3001C83.0984 21.1001 82.8984 20.9001 82.4984 20.9001H81.7984C81.1984 21.1001 80.8984 21.7001 80.1984 23.3001C79.5984 24.9001 76.4984 32.3001 75.5984 34.5001C75.1984 35.5001 74.8984 35.9001 74.4984 35.9001C74.0984 35.9001 73.8984 35.7001 72.8984 33.3001L70.0984 25.7001C69.4984 26.9001 67.3984 32.7001 66.6984 34.4001C66.2984 35.3001 65.8984 35.8001 65.4984 35.8001L65.1984 36.0001Z" fill="black" fill-opacity="0.9"/>
<path d="M48.1016 14C48.1016 14.9 48.8016 15.8 49.7016 15.8C50.6016 15.8 51.3016 14.9 51.3016 14C51.3016 13.1 50.7016 12.2 49.7016 12.2C48.7016 12.2 48.1016 13.1 48.1016 14ZM46.7016 14C46.7016 12.2 48.1016 11 49.7016 11C51.3016 11 52.8016 12.3 52.8016 14C52.8016 15.7 51.4016 17 49.7016 17C48.0016 17 46.7016 15.8 46.7016 14ZM46.7016 35.9C44.3016 35.9 43.1016 34.5 43.1016 32.6C43.1016 30.7 45.3016 28.1 51.6016 26.5C51.6016 25 51.7016 24.3 51.7016 23.6C51.7016 21.2 50.4016 20.8 49.2016 20.8C48.0016 20.8 46.7016 21.5 46.4016 22.9C46.2016 23.7 45.8016 24.6 44.7016 24.6C43.6016 24.6 43.3016 24.2 43.3016 23.3C43.3016 22.4 43.4016 22.4 43.8016 22C45.0016 20.6 48.0016 19 50.5016 19C53.0016 19 54.5016 21 54.5016 23.1C54.5016 25.2 54.3016 26.9 54.3016 29.6C54.3016 32.3 54.3016 33.7 55.5016 33.7C56.7016 33.7 56.4016 33.3 56.7016 33.1C56.9016 33.1 57.0016 32.9 57.1016 32.9C57.4016 32.9 57.6016 33.1 57.6016 33.4C57.6016 33.7 57.6016 33.6 57.5016 33.8C57.3016 34.1 56.1016 35.9 54.5016 35.9C52.9016 35.9 52.4016 35.3 51.8016 33.4C50.5016 34.6 48.9016 35.9 46.7016 35.9ZM46.0016 31.9C46.0016 33.1 46.8016 33.9 48.0016 33.9C49.2016 33.9 50.9016 32.5 51.6016 32V27.7C47.8016 29 46.0016 30 46.0016 31.9Z" fill="black" fill-opacity="0.9"/>
<path d="M36.8984 35.4001H33.5984C33.1984 35.4001 32.8984 35.4001 32.8984 34.7001C32.8984 34.0001 33.0984 34.0001 33.4984 33.9001H34.5984C35.1984 33.7001 35.4984 33.3001 35.4984 32.5001V23.7001L33.7984 24.8001C33.2984 25.1001 32.8984 25.2001 32.8984 24.7001V23.9001C32.8984 23.6001 32.9984 23.5001 33.3984 23.2001L35.4984 21.9001V14.5001C35.4984 11.8001 34.7984 11.5001 33.9984 11.2001C33.1984 10.8001 32.9984 10.8001 32.9984 10.3001C32.9984 9.8001 32.9984 9.9001 33.4984 9.8001C35.0984 9.2001 35.7984 8.8001 36.4984 8.5001C37.0984 8.3001 37.3984 8.1001 37.7984 8.1001C38.1984 8.1001 38.3984 8.3001 38.3984 8.8001V20.4001L40.0984 19.3001C40.6984 18.9001 40.9984 18.8001 40.9984 19.3001V20.2001C40.9984 20.5001 40.9984 20.7001 40.4984 20.9001L38.2984 22.3001V32.5001C38.2984 39.1001 38.4984 33.7001 39.2984 33.8001H40.2984C40.6984 34.0001 40.8984 34.1001 40.8984 34.7001C40.8984 35.3001 40.6984 35.5001 40.2984 35.4001H36.8984Z" fill="black" fill-opacity="0.9"/>
<path d="M17.1984 45.8H13.5984C13.1984 45.8 12.9984 45.8 12.9984 45.1C12.9984 44.4 13.1984 44.4 13.5984 44.3H14.5984C15.1984 44.3 15.2984 43.7 15.2984 42.9V26.8C15.2984 23.2 15.2984 22.2 13.6984 21.7C13.1984 21.5 12.8984 21.5 12.8984 21.1C12.8984 20.7 13.0984 20.7 13.8984 20.3C14.4984 20 15.2984 19.6 15.8984 19.2C16.4984 18.8 16.9984 18.5 17.4984 18.5C17.9984 18.5 18.0984 18.8 18.0984 19.4V21.2C19.2984 19.6 21.2984 19 23.2984 19C27.0984 19 30.4984 22 30.4984 27C30.4984 32 25.9984 36 22.3984 36C18.7984 36 19.8984 36 17.9984 34.8V43C17.9984 43.8 18.1984 44.2 18.9984 44.2H20.5984C20.9984 44.4 21.1984 44.5 21.1984 45.1C21.1984 45.7 20.9984 45.9 20.5984 45.8H17.0984H17.1984ZM17.9984 24.1V30.3C17.9984 32.6 19.6984 34.3 22.2984 34.3C24.8984 34.3 27.2984 32.4 27.2984 28.2C27.2984 24 24.9984 20.8 21.9984 20.8C18.9984 20.8 17.8984 22.2 17.8984 24.2H17.9984V24.1Z" fill="black" fill-opacity="0.9"/>
<path d="M4.80156 36C3.00156 36 1.60156 35.6 0.301559 34.6C-0.0984406 34.3 -0.0984406 34.2 -0.198441 33.8L-0.398438 31.4C-0.398438 30.9 -0.0984406 30.7 0.301559 30.7C0.701559 30.7 0.801556 31 1.00156 31.4C1.70156 33.2 2.90155 34.4 4.90155 34.4C6.90155 34.4 7.80156 33.3 7.80156 31.8C7.80156 30.3 7.20156 29.6 4.10156 28.4C1.90156 27.5 0.101562 26.2 0.101562 23.7C0.101562 21.2 2.60155 19 5.40155 19C8.20155 19 8.20155 19.4 9.40155 20.2C9.90155 20.5 10.0016 20.6 10.0016 21V23C10.0016 23.6 10.0016 23.8 9.60156 23.8C9.20156 23.8 9.20156 23.7 8.80156 23.1C8.00156 21.7 7.20155 20.5 5.20155 20.5C3.20155 20.5 2.70155 21.5 2.70155 22.7C2.70155 24.6 4.50155 25.4 6.40155 26.1C8.80155 27.1 10.6016 28.4 10.6016 31.1C10.6016 33.8 8.10156 35.9 4.80156 35.9V36Z" fill="black" fill-opacity="0.9"/>
</g>
<defs>
<clipPath id="clip0_308_26506">
<rect width="84" height="48" fill="white"/>
</clipPath>
</defs>
</svg>
