<svg width="115" height="48" viewBox="0 0 115 48" fill="none" xmlns="http://www.w3.org/2000/svg">
<path fill-rule="evenodd" clip-rule="evenodd" d="M0 14.7998V33.9998L19.2 14.7998H0Z" fill="#FFDC35"/>
<path fill-rule="evenodd" clip-rule="evenodd" d="M0 7.8999V27.0999L19.2 7.8999H0Z" fill="#F04619"/>
<path fill-rule="evenodd" clip-rule="evenodd" d="M0 1V20.3L19.2 1H0Z" fill="#241588"/>
<path d="M100.302 19.6001C101.302 19.6001 102.702 19.6001 103.702 19.5001C104.102 19.5001 104.302 19.5001 104.302 20.2001C104.302 20.9001 104.102 20.9001 103.702 21.0001H102.502C101.902 21.1001 101.802 21.6001 101.802 21.7001C101.802 22.1001 101.802 22.4001 102.302 23.5001L105.602 32.8001L109.002 25.0001C110.002 22.7001 110.102 22.2001 110.102 21.8001C110.102 21.4001 109.902 21.2001 109.502 21.2001H108.102C107.702 21.1001 107.502 20.9001 107.502 20.4001C107.502 19.9001 107.702 19.6001 108.102 19.6001C109.102 19.6001 110.302 19.7001 111.002 19.7001C111.702 19.7001 113.002 19.7001 114.102 19.6001C114.502 19.6001 114.702 19.6001 114.702 20.4001C114.702 21.2001 114.502 21.0001 114.102 21.0001H113.402C112.702 21.2001 112.302 21.4001 110.902 24.8001C109.902 27.3001 104.102 40.2001 103.402 41.9001C101.802 45.5001 100.502 45.9001 99.6016 45.9001C98.7016 45.9001 97.4016 45.0001 97.4016 44.1001C97.4016 43.2001 98.0016 42.4001 99.0016 42.4001C100.002 42.4001 100.102 43.1001 100.602 43.1001C101.102 43.1001 101.502 42.3001 101.802 41.6001C103.402 38.1001 104.002 36.8001 104.002 36.0001C104.002 35.2001 103.802 34.9001 103.502 34.2001L99.3016 23.4001C98.5016 21.4001 98.3016 21.1001 97.5016 21.0001H96.7016C96.3016 20.9001 96.1016 20.7001 96.1016 20.2001C96.1016 19.7001 96.3016 19.4001 96.7016 19.5001C97.7016 19.5001 99.3016 19.6001 100.302 19.5001V19.6001Z" fill="black" fill-opacity="0.9"/>
<path d="M85.4992 36.0002C81.0992 36.0002 78.1992 32.6002 78.1992 28.0002C78.1992 23.4002 81.6992 19.0002 86.1992 19.0002C90.6992 19.0002 89.6992 19.6002 90.5992 20.4002V14.6002C90.5992 12.2002 90.5992 11.4002 88.7992 10.8002C87.9992 10.5002 87.6992 10.4002 87.6992 10.0002C87.6992 9.6002 87.9992 9.4002 88.8992 9.2002C91.3992 8.7002 92.1992 8.2002 92.8992 8.2002C93.5992 8.2002 93.3992 8.50019 93.3992 9.00019V30.7002C93.3992 32.3002 93.5992 33.3002 94.4992 33.2002H95.2992C95.8992 33.0002 96.0992 33.0002 96.1992 33.4002C96.1992 33.7002 96.1992 33.9002 95.8992 34.2002C95.0992 34.6002 93.0992 35.6002 92.2992 35.9002H91.8992C91.1992 35.9002 91.0992 35.7002 90.9992 33.5002C89.8992 34.8002 87.7992 35.9002 85.6992 35.9002H85.4992V36.0002ZM86.5992 34.2002C88.4992 34.2002 90.6992 32.8002 90.6992 30.1002V25.8002C90.6992 21.3002 87.7992 20.7002 86.0992 20.7002C84.3992 20.7002 81.3992 21.4002 81.3992 26.9002C81.3992 32.4002 83.3992 34.2002 86.5992 34.2002Z" fill="black" fill-opacity="0.9"/>
<path d="M66.2016 35.9C63.8016 35.9 62.6016 34.5 62.6016 32.6C62.6016 30.7 64.8016 28.1 71.1016 26.5V23.6C71.1016 21.2 69.8016 20.8 68.6016 20.8C67.4016 20.8 66.1016 21.5 65.8016 22.9C65.6016 23.7 65.2016 24.6 64.1016 24.6C63.0016 24.6 62.7016 24.2 62.7016 23.3C62.7016 22.4 62.7016 22.4 63.2016 22C64.4016 20.6 67.4016 19 69.9016 19C72.4016 19 73.9016 21 73.9016 23.1C73.9016 25.2 73.7016 26.9 73.7016 29.6C73.7016 32.3 73.7016 33.7 74.9016 33.7C76.1016 33.7 75.8016 33.3 76.1016 33.1C76.3016 33.1 76.4016 32.9 76.5016 32.9C76.8016 32.9 77.0016 33.1 77.0016 33.4V33.8C76.8016 34.1 75.6016 35.9 74.0016 35.9C72.4016 35.9 71.9016 35.3 71.3016 33.4C70.0016 34.6 68.4016 35.9 66.2016 35.9ZM65.5016 31.9C65.5016 33.1 66.3016 33.9 67.5016 33.9C68.7016 33.9 70.4016 32.5 71.1016 32V27.7C67.3016 29 65.5016 30 65.5016 31.9Z" fill="black" fill-opacity="0.9"/>
<path d="M56.3984 35.4001H53.0984C52.6984 35.4001 52.3984 35.4001 52.3984 34.7001C52.3984 34.0001 52.5984 34.0001 52.9984 33.9001H54.0984C54.6984 33.7001 54.9984 33.3001 54.9984 32.5001V23.7001L53.2984 24.8001C52.7984 25.1001 52.3984 25.2001 52.3984 24.7001V23.9001C52.3984 23.6001 52.3984 23.5001 52.8984 23.2001L54.9984 21.9001V14.5001C54.9984 11.8001 54.2984 11.5001 53.4984 11.2001C52.6984 10.8001 52.4984 10.8001 52.4984 10.3001C52.4984 9.8001 52.4984 9.9001 52.9984 9.8001C54.5984 9.2001 55.2984 8.8001 55.9984 8.5001C56.5984 8.3001 56.8984 8.1001 57.2984 8.1001C57.6984 8.1001 57.8984 8.3001 57.8984 8.8001V20.4001L59.5984 19.3001C60.1984 18.9001 60.4984 18.8001 60.4984 19.3001V20.2001C60.4984 20.5001 60.4984 20.7001 59.9984 20.9001L57.7984 22.3001V32.5001C57.7984 39.1001 57.9984 33.7001 58.7984 33.8001H59.7984C60.1984 34.0001 60.3984 34.1001 60.3984 34.7001C60.3984 35.3001 60.1984 35.5001 59.7984 35.4001H56.3984Z" fill="black" fill-opacity="0.9"/>
<path d="M34.4992 36.0001C34.0992 36.0001 33.6992 35.5001 33.3992 34.8001L29.0992 23.4001C28.3992 21.6001 28.1992 21.1001 27.4992 21.0001H26.7992C26.3992 20.9001 26.1992 20.8001 26.1992 20.2001C26.1992 19.6001 26.3992 19.4001 26.7992 19.5001C27.7992 19.5001 29.2992 19.6001 30.2992 19.6001C31.2992 19.6001 32.4992 19.6001 33.4992 19.5001C33.8992 19.5001 34.0992 19.5001 34.0992 20.2001C34.0992 20.9001 33.8992 20.9001 33.4992 21.0001H32.2992C31.9992 21.0001 31.6992 21.2001 31.6992 21.6001C31.6992 22.0001 31.8992 22.7001 32.2992 23.6001C33.2992 26.4001 34.0992 29.2001 35.0992 32.2001C35.4992 31.2001 37.4992 26.0001 37.7992 25.2001C38.3992 23.6001 38.4992 23.0001 38.4992 22.4001C38.4992 21.5001 37.8992 21.1001 37.1992 21.0001H36.4992C36.0992 20.9001 35.8992 20.8001 35.8992 20.2001C35.8992 19.6001 36.0992 19.4001 36.4992 19.5001C37.4992 19.5001 38.8992 19.6001 39.8992 19.6001C40.8992 19.6001 41.8992 19.6001 42.8992 19.5001C43.2992 19.5001 43.4992 19.5001 43.4992 20.2001C43.4992 20.9001 43.2992 20.9001 42.8992 21.0001H41.5992C41.0992 21.1001 40.9992 21.6001 40.9992 21.9001C40.9992 22.4001 40.9992 23.0001 41.3992 23.9001L44.1992 31.9001C45.3992 28.8001 46.7992 25.2001 47.3992 23.6001C47.7992 22.4001 47.8992 22.0001 47.8992 21.6001C47.8992 21.2001 47.6992 21.1001 47.2992 21.1001H46.0992C45.6992 21.0001 45.4992 20.9001 45.4992 20.3001C45.4992 19.7001 45.6992 19.5001 46.0992 19.5001C47.0992 19.6001 47.7992 19.6001 49.1992 19.6001C50.5992 19.6001 50.7992 19.6001 51.7992 19.5001C52.1992 19.5001 52.3992 19.5001 52.3992 20.3001C52.3992 21.1001 52.1992 20.9001 51.7992 20.9001H51.0992C50.4992 21.1001 50.1992 21.7001 49.4992 23.3001C48.8992 24.9001 45.7992 32.3001 44.8992 34.5001C44.4992 35.5001 44.1992 35.9001 43.7992 35.9001C43.3992 35.9001 43.1992 35.7001 42.1992 33.3001L39.3992 25.7001C38.7992 26.9001 36.6992 32.7001 35.9992 34.4001C35.5992 35.3001 35.1992 35.8001 34.7992 35.8001L34.4992 36.0001Z" fill="black" fill-opacity="0.9"/>
</svg>
