<svg width="31" height="30" viewBox="0 0 31 30" fill="none" xmlns="http://www.w3.org/2000/svg">
<path d="M15.25 0H14.1927H9.03857H5.80066C2.69493 0 0.25 2.4569 0.25 5.43104V30H3.48788C6.52753 30 9.03857 27.5431 9.03857 24.5689V4.78448V10.9914H19.7434V4.78448C19.6773 2.13362 17.6949 0 15.25 0Z" fill="#0AA4EE"/>
<path d="M9.03516 5.30252V10.9922H19.74V5.23786C19.74 2.78097 17.7576 0.841309 15.3127 0.841309C11.8105 0.841309 9.03516 2.84562 9.03516 5.30252Z" fill="url(#paint0_linear_298_25754)"/>
<path d="M27.0836 0C24.044 0 21.5329 2.4569 21.5329 5.43104V19.0086H10.8281V25.2155C10.8281 27.8664 12.8104 30 15.2554 30H16.3127H21.4669H24.7048C27.7444 30 30.2554 27.5431 30.2554 24.5689V0H27.0836Z" fill="#0AA4EE"/>
<path d="M10.8281 19.0083V24.7626C10.8281 27.2195 12.8104 29.1592 15.2554 29.1592C18.6915 29.1592 21.5329 27.1549 21.5329 24.7626V19.073H10.8281V19.0083Z" fill="url(#paint1_linear_298_25754)"/>
<path d="M15.25 0H14.1927H9.03858H5.80066C2.69493 0 0.25 2.4569 0.25 5.43104V30H3.48789C6.52753 30 9.03858 27.5431 9.03858 24.5689V4.78448V10.9914H19.7434V4.78448C19.6773 2.13362 17.6949 0 15.25 0Z" fill="#098ECE"/>
<path d="M9.03906 5.30252V10.9922H19.7439V5.23786C19.7439 2.78097 17.7615 0.841309 15.3166 0.841309C11.8144 0.841309 9.03906 2.84562 9.03906 5.30252Z" fill="url(#paint2_linear_298_25754)"/>
<path d="M27.0797 0C24.04 0 21.529 2.4569 21.529 5.43104V19.0086H10.8242V25.2155C10.8242 27.8664 12.8065 30 15.2515 30H16.3087H21.463H24.7009C27.7405 30 30.2515 27.5431 30.2515 24.5689V0H27.0797Z" fill="#098ECE"/>
<path d="M10.8242 19.0088V24.7631C10.8242 27.22 12.8065 29.1597 15.2515 29.1597C18.6876 29.1597 21.529 27.1554 21.529 24.7631V19.0734H10.8242V19.0088Z" fill="url(#paint3_linear_298_25754)"/>
<defs>
<linearGradient id="paint0_linear_298_25754" x1="19.7389" y1="5.91386" x2="9.06351" y2="5.91386" gradientUnits="userSpaceOnUse">
<stop stop-color="#91CCFC"/>
<stop offset="1" stop-color="#345D89"/>
</linearGradient>
<linearGradient id="paint1_linear_298_25754" x1="21.5318" y1="24.0809" x2="10.8565" y2="24.0809" gradientUnits="userSpaceOnUse">
<stop stop-color="#345D89"/>
<stop offset="1" stop-color="#91CCFC"/>
</linearGradient>
<linearGradient id="paint2_linear_298_25754" x1="9.01304" y1="5.9331" x2="19.6883" y2="5.9331" gradientUnits="userSpaceOnUse">
<stop stop-color="#3F434A"/>
<stop offset="1" stop-color="#71757C"/>
</linearGradient>
<linearGradient id="paint3_linear_298_25754" x1="21.5279" y1="24.0813" x2="10.8526" y2="24.0813" gradientUnits="userSpaceOnUse">
<stop stop-color="#3F434A"/>
<stop offset="1" stop-color="#71757C"/>
</linearGradient>
</defs>
</svg>
