<svg width="177" height="30" viewBox="0 0 177 30" fill="none" xmlns="http://www.w3.org/2000/svg">
<path d="M43.5 22.6475V8.20319C43.5 7.89149 43.6051 7.68367 43.8151 7.47581C44.0251 7.26797 44.3402 7.16406 44.6552 7.16406H46.8607C47.1757 7.16406 47.3858 7.26797 47.5958 7.47581C47.8059 7.68367 47.9109 7.99537 47.9109 8.20319V13.399H55.8925V8.20319C55.8925 7.89149 55.9975 7.68367 56.2075 7.47581C56.4176 7.26797 56.7327 7.16406 56.9427 7.16406H59.1481C59.4632 7.16406 59.7783 7.26797 59.9883 7.47581C60.1984 7.68367 60.3034 7.99537 60.3034 8.20319V22.5436C60.3034 22.8553 60.1984 23.0632 59.9883 23.271C59.7783 23.4788 59.4632 23.5828 59.2531 23.5828H57.0477C56.7327 23.5828 56.5226 23.4788 56.3125 23.271C56.1025 23.0632 55.9975 22.8553 55.9975 22.5436V16.6204H48.0159V22.5436C48.0159 22.8553 47.9109 23.0632 47.7009 23.271C47.4908 23.4788 47.2807 23.5828 46.9657 23.5828H44.7603C44.4452 23.5828 44.2351 23.4788 43.9201 23.271C43.6051 23.167 43.5 22.8553 43.5 22.6475Z" fill="#2C2C2E"/>
<path d="M75.2174 11.3223C74.4823 10.3871 73.2221 9.9714 71.4367 9.9714C69.6513 9.9714 68.3911 10.3871 67.656 11.3223C66.9208 12.2576 66.5007 13.6084 66.5007 15.4789C66.5007 17.3494 66.9208 18.7003 67.656 19.6355C68.3911 20.5708 69.7564 20.9864 71.4367 20.9864C73.2221 20.9864 74.4823 20.5708 75.2174 19.6355C75.9524 18.7003 76.3724 17.3494 76.3724 15.4789C76.3724 13.6084 75.9524 12.2576 75.2174 11.3223ZM78.3681 21.9217C76.7931 23.2726 74.4823 24 71.4367 24C68.3911 24 66.0807 23.2726 64.5054 21.9217C62.93 20.5708 62.0898 18.3886 62.0898 15.375C62.0898 12.3614 62.93 10.1792 64.5054 8.82833C66.0807 7.47741 68.3911 6.75 71.4367 6.75C74.4823 6.75 76.7931 7.47741 78.3681 8.82833C79.9431 10.1792 80.7839 12.3614 80.7839 15.375C80.7839 18.3886 79.9431 20.5708 78.3681 21.9217Z" fill="#2C2C2E"/>
<path d="M86.8722 20.5692H93.4887C94.1187 20.5692 94.5387 20.3614 94.8537 20.0496C95.1687 19.7378 95.3794 19.2183 95.3794 18.5948C95.3794 17.9713 95.1687 17.4517 94.8537 17.14C94.5387 16.8282 94.1187 16.6204 93.4887 16.6204H86.8722V20.5692ZM86.8722 13.6068H93.0687C93.5937 13.6068 93.9087 13.5029 94.2237 13.1911C94.5387 12.8794 94.6437 12.4638 94.6437 11.9442C94.6437 11.4246 94.5387 11.0089 94.2237 10.6972C93.9087 10.3855 93.4887 10.2815 93.0687 10.2815H86.8722V13.6068ZM82.5664 8.20319C82.5664 7.89149 82.6714 7.68367 82.8814 7.47581C83.0914 7.26797 83.4064 7.16406 83.6164 7.16406H93.0687C95.3794 7.16406 97.0594 7.78754 98.2144 9.13844C98.8444 9.86587 99.1602 10.8011 99.1602 11.9442C99.1602 13.0873 98.6344 14.0225 97.5844 14.9578C99.0544 15.7891 99.7902 16.9321 99.7902 18.5948C99.7902 20.2574 99.1602 21.5044 98.0044 22.4397C96.8494 23.271 95.3794 23.6866 93.5937 23.6866H83.6164C83.3014 23.6866 83.0914 23.5828 82.8814 23.3749C82.6714 23.167 82.5664 22.9592 82.5664 22.6475V8.20319Z" fill="#2C2C2E"/>
<path d="M106.41 16.4125H113.867V10.3855H110.506C109.771 10.3855 109.141 10.5933 108.511 11.0089C107.986 11.4246 107.565 11.9442 107.355 12.6716L106.41 16.4125ZM100.32 22.6475L103.26 11.6324C104.1 8.61884 106.62 7.16406 110.926 7.16406H117.228C117.543 7.16406 117.753 7.26797 117.963 7.47581C118.173 7.68367 118.278 7.89149 118.278 8.20319V22.6475C118.278 22.9592 118.173 23.167 117.963 23.3749C117.753 23.5828 117.438 23.6866 117.228 23.6866H115.022C114.707 23.6866 114.392 23.5828 114.287 23.3749C114.077 23.167 113.972 22.9592 113.972 22.6475V19.7378H105.675L104.94 22.6475C104.835 22.9592 104.73 23.271 104.415 23.3749C104.1 23.5828 103.89 23.6866 103.575 23.6866H101.265C100.95 23.6866 100.74 23.5828 100.635 23.4788C100.53 23.271 100.425 23.167 100.425 23.0632C100.214 22.8553 100.214 22.7514 100.32 22.6475Z" fill="#2C2C2E"/>
<path d="M120.797 22.6475V8.20319C120.797 7.89149 120.902 7.68367 121.112 7.47581C121.322 7.26797 121.637 7.16406 121.847 7.16406H124.053C124.368 7.16406 124.578 7.26797 124.788 7.47581C124.998 7.68367 125.103 7.99537 125.103 8.20319V20.3614H132.874V8.20319C132.874 7.89149 132.979 7.68367 133.189 7.47581C133.399 7.26797 133.609 7.16406 133.925 7.16406H136.13C136.445 7.16406 136.655 7.26797 136.865 7.47581C137.075 7.68367 137.18 7.99537 137.18 8.20319V20.3614H138.441C138.756 20.3614 138.966 20.4652 139.176 20.6731C139.386 20.8809 139.491 21.1927 139.491 21.4005V22.4397C139.491 22.7514 139.386 22.9592 139.176 23.167C138.966 23.3749 138.651 23.4788 138.441 23.4788H121.742C121.427 23.4788 121.217 23.3749 121.007 23.167C120.902 23.167 120.797 22.8553 120.797 22.6475Z" fill="#2C2C2E"/>
<path d="M140.961 22.6498V8.2056C140.961 7.89382 141.066 7.58205 141.277 7.37424C141.487 7.16641 141.697 7.0625 142.117 7.0625H144.112C144.427 7.0625 144.637 7.16641 144.847 7.37424C145.057 7.58205 145.162 7.78987 145.162 8.10165V19.6363L151.778 8.10165C151.988 7.78987 152.198 7.58205 152.514 7.37424C152.829 7.16641 153.144 7.0625 153.354 7.0625H156.82C157.135 7.0625 157.345 7.16641 157.555 7.37424C157.765 7.58205 157.87 7.89382 157.87 8.10165V22.442C157.87 22.7538 157.765 22.9616 157.555 23.1694C157.345 23.3773 157.03 23.4811 156.82 23.4811H154.824C154.509 23.4811 154.299 23.3773 154.089 23.1694C153.879 22.9616 153.774 22.7538 153.774 22.442V11.9465L147.682 22.6498C147.472 22.9616 147.262 23.1694 146.947 23.3773C146.632 23.5851 146.317 23.689 146.002 23.689H142.117C141.802 23.689 141.592 23.5851 141.382 23.3773C141.066 23.1694 140.961 22.8577 140.961 22.6498Z" fill="#2C2C2E"/>
<path d="M164.067 12.4692C164.067 13.8201 164.698 14.5475 165.958 14.5475H171.733V10.4948H165.958C164.698 10.3909 164.067 11.1183 164.067 12.4692ZM159.656 23.0687C159.656 22.9647 159.656 22.7569 159.761 22.6529L163.017 17.4572C160.812 16.5219 159.761 14.8593 159.761 12.677C159.761 11.0144 160.391 9.66353 161.547 8.72828C162.702 7.79303 164.277 7.27344 166.063 7.27344H175.199C175.514 7.27344 175.725 7.37736 175.935 7.58521C176.145 7.79303 176.25 8.00086 176.25 8.31263V22.7569C176.25 23.0687 176.145 23.2765 175.935 23.4843C175.725 23.6921 175.514 23.796 175.199 23.796H172.994C172.679 23.796 172.469 23.6921 172.259 23.4843C172.049 23.2765 171.943 23.0687 171.943 22.7569V17.9768H167.743L164.908 22.7569C164.488 23.4843 163.962 23.796 163.227 23.796H160.286C159.761 23.6921 159.656 23.4843 159.656 23.0687Z" fill="#2C2C2E"/>
<path d="M113.56 0.170283L110.628 4.67028C110.465 4.91973 110.644 5.25 110.942 5.25H114.094C114.208 5.25 114.316 5.19857 114.387 5.11012L118.009 0.610129C118.207 0.364773 118.032 0 117.717 0H113.874C113.747 0 113.629 0.0640595 113.56 0.170283Z" fill="#2C2C2E"/>
<path d="M15 0H13.9427H8.78857H5.55066C2.44493 0 0 2.4569 0 5.43104V30H3.23788C6.27753 30 8.78857 27.5431 8.78857 24.5689V4.78448V10.9914H19.4934V4.78448C19.4273 2.13362 17.4449 0 15 0Z" fill="#0AA4EE"/>
<path d="M8.78613 5.30105V10.9907H19.491V5.2364C19.491 2.7795 17.5086 0.839844 15.0636 0.839844C11.5614 0.839844 8.78613 2.84416 8.78613 5.30105Z" fill="url(#paint0_linear_181_28163)"/>
<path d="M26.8317 0C23.792 0 21.281 2.4569 21.281 5.43104V19.0086H10.5762V25.2155C10.5762 27.8664 12.5585 30 15.0034 30H16.0607H21.2149H24.4528C27.4924 30 30.0034 27.5431 30.0034 24.5689V0H26.8317Z" fill="#0AA4EE"/>
<path d="M10.5762 19.0078V24.7621C10.5762 27.219 12.5585 29.1587 15.0034 29.1587C18.4395 29.1587 21.281 27.1544 21.281 24.7621V19.0725H10.5762V19.0078Z" fill="url(#paint1_linear_181_28163)"/>
<path d="M15 0H13.9427H8.78858H5.55066C2.44493 0 0 2.4569 0 5.43104V30H3.23789C6.27753 30 8.78858 27.5431 8.78858 24.5689V4.78448V10.9914H19.4934V4.78448C19.4273 2.13362 17.4449 0 15 0Z" fill="#098ECE"/>
<path d="M8.78906 5.30105V10.9907H19.4939V5.2364C19.4939 2.7795 17.5115 0.839844 15.0666 0.839844C11.5644 0.839844 8.78906 2.84416 8.78906 5.30105Z" fill="url(#paint2_linear_181_28163)"/>
<path d="M26.8287 0C23.7891 0 21.2781 2.4569 21.2781 5.43104V19.0086H10.5732V25.2155C10.5732 27.8664 12.5556 30 15.0005 30H16.0578H21.212H24.4499C27.4895 30 30.0005 27.5431 30.0005 24.5689V0H26.8287Z" fill="#098ECE"/>
<path d="M10.5732 19.0078V24.7621C10.5732 27.219 12.5556 29.1587 15.0005 29.1587C18.4366 29.1587 21.2781 27.1544 21.2781 24.7621V19.0725H10.5732V19.0078Z" fill="url(#paint3_linear_181_28163)"/>
<defs>
<linearGradient id="paint0_linear_181_28163" x1="19.4898" y1="5.9124" x2="8.81448" y2="5.9124" gradientUnits="userSpaceOnUse">
<stop stop-color="#91CCFC"/>
<stop offset="1" stop-color="#345D89"/>
</linearGradient>
<linearGradient id="paint1_linear_181_28163" x1="21.2799" y1="24.0804" x2="10.6045" y2="24.0804" gradientUnits="userSpaceOnUse">
<stop stop-color="#345D89"/>
<stop offset="1" stop-color="#91CCFC"/>
</linearGradient>
<linearGradient id="paint2_linear_181_28163" x1="8.76304" y1="5.93163" x2="19.4383" y2="5.93163" gradientUnits="userSpaceOnUse">
<stop stop-color="#3F434A"/>
<stop offset="1" stop-color="#71757C"/>
</linearGradient>
<linearGradient id="paint3_linear_181_28163" x1="21.2769" y1="24.0804" x2="10.6016" y2="24.0804" gradientUnits="userSpaceOnUse">
<stop stop-color="#3F434A"/>
<stop offset="1" stop-color="#71757C"/>
</linearGradient>
</defs>
</svg>
