<svg width="84" height="18" viewBox="0 0 84 18" fill="none" xmlns="http://www.w3.org/2000/svg">
<path d="M48.4004 17.7771C45.2324 17.7771 43.6484 15.4011 43.6484 13.6491C43.6484 11.2011 45.7844 9.59315 47.4884 8.34515C46.2164 7.24115 45.4244 6.56915 45.4244 5.46515C45.4244 3.35315 47.7524 1.57715 49.5524 1.57715C51.0404 1.57715 52.3124 3.04115 52.3124 4.43315C52.3124 5.56115 51.5684 6.66515 49.7204 8.03315C51.4244 9.32915 52.4804 10.4571 54.0404 12.8091C55.4084 10.9611 56.1284 8.99315 56.1284 8.05715C56.1284 7.81715 56.0564 7.64915 55.7444 7.57715L54.8564 7.40915C54.6164 7.36115 54.4004 7.31315 54.4004 6.92915C54.4004 6.44915 54.6164 6.44915 54.9524 6.44915C55.9124 6.44915 56.2964 6.54515 57.4724 6.54515C58.3604 6.54515 59.1764 6.44915 59.7284 6.44915C59.9684 6.44915 60.0884 6.47315 60.0884 6.95315C60.0884 7.26515 59.8484 7.31315 59.6084 7.36115L58.6244 7.50515C58.0004 7.60115 57.7604 8.00915 57.5444 8.41715C56.6804 10.0011 55.7684 12.1851 54.5684 13.7691C55.3364 15.1131 56.4164 16.1211 57.3524 16.1211C58.0244 16.1211 58.6724 15.8091 59.5604 14.6571C59.8004 14.3451 60.1604 14.4891 60.1604 14.8011C60.1604 14.9211 60.1124 15.0651 60.0164 15.3051C59.6564 16.1931 58.3844 17.7051 56.8004 17.7051C55.4324 17.7051 54.4964 17.0811 53.2724 15.1611C52.4084 16.1211 50.9444 17.7771 48.4004 17.7771ZM48.8804 7.40915C49.9364 6.64115 50.8964 5.96915 50.8964 4.86515C50.8964 3.88115 50.0324 2.63315 48.9044 2.63315C47.8484 2.63315 46.7204 3.78515 46.7204 4.69715C46.7204 5.60915 47.0564 6.16115 48.8804 7.40915ZM48.9764 16.3131C50.5844 16.3131 51.9764 15.1371 52.7444 14.2971C50.7044 11.2011 49.7684 10.2171 48.2564 8.99315C47.2484 9.95315 45.5444 11.0811 45.5444 12.8571C45.5444 14.8971 47.2244 16.3131 48.9764 16.3131Z" fill="black"/>
<path d="M33.5668 17.3453C32.7268 17.3453 32.5348 17.3693 31.9108 17.4173C31.6708 17.4413 31.5508 17.4173 31.5508 16.9133C31.5508 16.6253 31.6948 16.5533 31.9108 16.5293L32.3188 16.4813C32.6788 16.4333 32.7988 16.2173 32.7988 15.8573C32.7988 12.3773 32.8468 11.8493 32.8468 10.8893V6.08932C32.8468 3.80932 32.7508 3.25732 32.0068 2.94532C31.5028 2.72932 31.3828 2.68132 31.3828 2.41732C31.3828 2.32132 31.4308 2.20132 31.6708 2.10532C32.5108 1.76932 32.8948 1.60132 33.5668 1.28932C33.8548 1.14532 34.0228 1.04932 34.1908 1.04932C34.2868 1.04932 34.5028 1.12132 34.5028 1.36132V2.10532C34.5028 3.37732 34.4548 5.77732 34.4548 9.49732C35.0788 8.15332 36.2548 7.52932 37.6708 7.52932C38.9188 7.52932 39.9268 8.08132 40.3108 9.42532C40.5028 10.0973 40.5268 10.9853 40.5268 12.3773V15.8573C40.5268 16.1933 40.6228 16.4573 41.0788 16.4813L41.5588 16.5293C41.7988 16.5533 41.9428 16.6253 41.9428 16.9853C41.9428 17.4173 41.8468 17.4413 41.5828 17.4173C40.9828 17.3693 40.5508 17.3453 39.9508 17.3453C39.3508 17.3453 38.3908 17.3693 37.7908 17.4173C37.5268 17.4413 37.4308 17.4173 37.4308 16.9853C37.4308 16.6253 37.5988 16.5533 37.8148 16.5293L38.4388 16.4813C38.8228 16.4573 38.8708 16.1933 38.8708 15.8573V12.7853C38.8708 11.5133 38.8468 10.6973 38.6308 10.0733C38.3428 9.28132 37.7188 8.84932 36.8068 8.84932C35.5348 8.84932 34.3828 9.88132 34.4068 12.0173L34.4548 15.8573C34.4548 16.2173 34.4788 16.4333 34.8388 16.4813L35.3668 16.5293C35.5828 16.5533 35.7268 16.6253 35.7268 16.9613C35.7268 17.3933 35.6308 17.4413 35.3908 17.4173C34.7668 17.3693 34.4068 17.3453 33.5668 17.3453Z" fill="black"/>
<path d="M27.8701 17.7052C26.6701 17.7052 25.3501 17.0572 25.3741 15.0172L25.4701 9.11321H24.4621C24.1261 9.11321 24.0781 8.82521 24.0781 8.72921C24.0781 8.51321 24.4141 8.27321 24.8221 7.79321C25.1341 7.43321 25.4941 7.00121 26.4781 5.63321C26.5981 5.46521 26.6941 5.34521 26.8861 5.34521C27.0541 5.34521 27.1741 5.46521 27.1741 5.63321L27.1021 8.00921C27.7261 8.00921 29.4781 7.93721 30.1021 7.93721C30.3901 7.93721 30.4861 8.08121 30.4141 8.39321L30.2941 8.72921C30.1501 9.11321 30.0301 9.11321 29.8861 9.11321H27.0781V13.8652C27.0781 15.7372 27.5101 16.6012 28.8541 16.6012C29.4781 16.6012 29.8141 16.2412 30.1261 16.2412C30.2221 16.2412 30.4141 16.3372 30.4141 16.5532C30.4141 16.7692 30.2461 16.8892 30.0061 17.0572C29.5501 17.3692 28.8541 17.7052 27.8701 17.7052Z" fill="black"/>
<path d="M8.4 14.297C5.304 14.297 3.72 11.777 3.72 9.49699C3.72 7.09699 5.52 4.69699 8.664 4.69699C9.36 4.69699 10.512 4.96099 11.52 5.72899L11.784 5.41699C11.832 5.29699 11.928 5.20099 12.096 5.20099C12.24 5.20099 12.336 5.29699 12.336 5.53699C12.336 6.32899 12.336 6.68899 12.432 7.64899C12.456 7.86499 12.288 8.00899 12.12 8.00899C11.904 8.00899 11.808 7.86499 11.496 7.38499C10.704 6.08899 9.792 5.46499 8.664 5.46499C6.312 5.46499 5.424 7.40899 5.424 9.16099C5.424 11.345 6.624 13.193 8.904 13.193C9.984 13.193 10.896 12.689 11.472 11.945C11.808 11.513 12 11.465 12.168 11.465C12.336 11.465 12.48 11.513 12.48 11.753C12.48 11.993 12.312 12.257 12.024 12.617C11.4 13.409 10.176 14.297 8.4 14.297ZM0 9.56899C0 4.98499 3.792 1.31299 8.352 1.31299C12.936 1.31299 16.704 4.98499 16.704 9.56899C16.704 14.129 12.936 17.753 8.352 17.753C3.792 17.753 0 14.129 0 9.56899ZM1.248 9.56899C1.248 13.457 4.44 16.745 8.352 16.745C12.264 16.745 15.48 13.457 15.48 9.56899C15.48 5.65699 12.264 2.29699 8.352 2.29699C4.44 2.29699 1.248 5.65699 1.248 9.56899Z" fill="black"/>
<path d="M82.9913 1.60198C82.8653 1.72198 82.6973 1.80298 82.4873 1.84498C82.2773 1.88698 82.0133 1.90798 81.6953 1.90798V1.23298C82.0733 1.22098 82.3613 1.17598 82.5593 1.09798C82.7633 1.01998 82.9073 0.905977 82.9913 0.755977C83.0753 0.605977 83.1353 0.395977 83.1713 0.125977H83.8013V6.34498H82.9913V1.60198Z" fill="black"/>
<path d="M79.796 1.60198C79.67 1.72198 79.502 1.80298 79.292 1.84498C79.082 1.88698 78.818 1.90798 78.5 1.90798V1.23298C78.878 1.22098 79.166 1.17598 79.364 1.09798C79.568 1.01998 79.712 0.905977 79.796 0.755977C79.88 0.605977 79.94 0.395977 79.976 0.125977H80.606V6.34498H79.796V1.60198Z" fill="black"/>
<path d="M75.3159 6.471C74.5119 6.471 73.9119 6.171 73.5159 5.571C73.1199 4.965 72.9219 4.188 72.9219 3.24C72.9219 2.286 73.1199 1.509 73.5159 0.909C73.9119 0.303 74.5119 0 75.3159 0C76.1199 0 76.7199 0.303 77.1159 0.909C77.5119 1.509 77.7099 2.286 77.7099 3.24C77.7099 4.188 77.5119 4.965 77.1159 5.571C76.7199 6.171 76.1199 6.471 75.3159 6.471ZM73.7679 3.24C73.7679 3.984 73.8879 4.59 74.1279 5.058C74.3679 5.52 74.7639 5.751 75.3159 5.751C75.8679 5.751 76.2639 5.52 76.5039 5.058C76.7439 4.59 76.8639 3.984 76.8639 3.24C76.8639 2.496 76.7439 1.89 76.5039 1.422C76.2639 0.954 75.8679 0.72 75.3159 0.72C74.7639 0.72 74.3679 0.954 74.1279 1.422C73.8879 1.89 73.7679 2.496 73.7679 3.24Z" fill="black"/>
<path d="M69.6535 6.471C68.8675 6.471 68.2585 6.276 67.8265 5.886C67.4005 5.496 67.1875 4.947 67.1875 4.239H68.0335C68.0335 4.719 68.1535 5.091 68.3935 5.355C68.6335 5.619 69.0325 5.751 69.5905 5.751C70.1005 5.751 70.4635 5.655 70.6795 5.463C70.9015 5.265 71.0125 4.977 71.0125 4.599C71.0125 4.173 70.8895 3.876 70.6435 3.708C70.4035 3.54 70.1005 3.456 69.7345 3.456H69.0685V2.736H69.6985C70.0345 2.736 70.2985 2.655 70.4905 2.493C70.6885 2.325 70.7875 2.067 70.7875 1.719C70.7875 1.437 70.6945 1.2 70.5085 1.008C70.3225 0.816 70.0315 0.72 69.6355 0.72C69.0835 0.72 68.7055 0.84 68.5015 1.08C68.2975 1.314 68.1955 1.617 68.1955 1.989H67.3495C67.3495 1.395 67.5445 0.915 67.9345 0.549C68.3245 0.183 68.8915 0 69.6355 0C69.9955 0 70.3255 0.0689998 70.6255 0.207C70.9315 0.339 71.1745 0.537 71.3545 0.801C71.5405 1.059 71.6335 1.365 71.6335 1.719C71.6335 2.043 71.5525 2.313 71.3905 2.529C71.2345 2.745 70.9975 2.916 70.6795 3.042V3.06C71.4655 3.306 71.8585 3.819 71.8585 4.599C71.8585 5.187 71.6575 5.646 71.2555 5.976C70.8595 6.306 70.3255 6.471 69.6535 6.471Z" fill="black"/>
</svg>
