<?xml version="1.0" encoding="UTF-8"?>
<svg id="Layer_1" data-name="Layer 1" xmlns="http://www.w3.org/2000/svg" version="1.1" viewBox="0 0 95 21">
  <defs>
    <style>
      .cls-1 {
        fill: #000;
        stroke-width: 0px;
      }
    </style>
  </defs>
  <path class="cls-1" d="M87.7,9.8h-1.8v-.4h.5v-.5h.6v-.6h.7v1.5ZM88.5,9.8h-.8v-.4h.8v.4ZM92.8,9.8h-2.4v-.4h.9v-1.1h1.5v1.5ZM93.4,9.8h-.6v-1.5h.6v1.5ZM94.3,9.4v.4h-.9v-.4h.9ZM89.4,6.8h-.9v1.5h-.8v-1.5h.8v-1.9h.9v1.9ZM92.1,4h.7v4.3h-1.5v-1.5h-1.9v-.9h1.9v-1.9h-.9v.9h-1v-1.7h1v-1.3h.9v-.9h.8v3ZM93.4,8.3h-.6v-1.5h.6v1.5Z"/>
  <path class="cls-1" d="M65.6,3v13.1h-3.6v-1.8l-.8.7h0c-.8.8-1.6,1.1-2.7,1.1h-5.2c-1.2,0-2-.3-2.7-1.1h0s-3.3-3.3-3.3-3.3h0c-.8-.8-1.1-1.6-1.1-2.8V3h3.6v8.6c0,.6.5,1.1,1.1,1.1h9.9c.6,0,1.1-.5,1.1-1.1V3h3.6ZM61.1,13.7c-.1,0-.2,0-.3,0h-9.9c-.1,0-.2,0-.3,0l.7.6h0c.6.6,1.1.8,2,.8h5.2c.9,0,1.5-.2,2-.8h0s.7-.6.7-.6ZM62.9,11.6c0,.1,0,.2,0,.3h0s0,3.2,0,3.2h1.6V4h-1.6v7.6ZM47.1,9c0,.9.2,1.5.8,2l.9.9c0,0,0-.2,0-.3v-7.6h-1.6v5Z"/>
  <path class="cls-1" d="M29.8,4h-1.6v7.6c0,.1,0,.2,0,.3l.8-.8.4.3.5.5c0-.1,0-.2,0-.3v-7.6ZM26.4,13.6c-.1,0-.2,0-.4,0h-4.7c-.1,0-.2,0-.3,0l.7.6h0c.3.3.6.5.9.6.3.1.7.2,1.1.2.9,0,1.5-.2,2-.8l.7-.7ZM37,13.6c-.1,0-.2,0-.4,0h-4.7c-.1,0-.2,0-.3,0l.7.6h0c.3.3.6.5.9.6.3.1.7.2,1.1.2.9,0,1.5-.2,2-.8l.7-.7ZM40.4,4h-1.6v7.6c0,.1,0,.2,0,.3l.9-.9c.6-.6.8-1.1.8-2v-5ZM17.6,9c0,.9.2,1.5.8,2l.9.9c0,0,0-.2,0-.3v-7.6h-1.6v5ZM41.4,9c0,1.2-.3,2-1.1,2.8l-3.3,3.3c-.8.8-1.6,1.1-2.8,1.1s-1,0-1.5-.3c-.5-.2-.8-.5-1.2-.8l-2.6-2.5-2.5,2.5c-.8.8-1.6,1.1-2.8,1.1s-1,0-1.5-.3c-.5-.2-.8-.5-1.2-.8l-3.3-3.3h0c-.8-.8-1.1-1.6-1.1-2.8V3h3.6v8.6c0,.6.5,1.1,1.1,1.1h4.7c.6,0,1.1-.5,1.1-1.1V3h3.6v8.6c0,.6.5,1.1,1.1,1.1h4.7c.6,0,1.1-.5,1.1-1.1V3h3.6v6Z"/>
  <path class="cls-1" d="M80.5,8.6h-.5v.5h2.7v-.5h.9v-.9h.5v.9h-.5v.9h-.5v.5h-5v-.5h.5v-.5h.5v-.5h.5v-.5h.5v-.5h.5v-.5h.5v-.5h.5v-.5h.5v-.5h.9v-.5h.5v-.5h.5v-.9h.5v-.5h.5v-1.8h-.5v-.5h-1.8v.5h-.5v.5h-.5v.5h.5v.5h-.5v.5h-.5v-.5h-.5v-.9h.5v-.5h.5v-.5h.5v-.5h3.2v.5h.5v.5h.5v1.4h-.5v.9h-.5v.5h-.5v.5h-.5v.5h-.5v.5h-.5v.5h-.5v.5h-.5v.5h-.9v.5h-.5v.5h-.5v.5ZM79.2,9.5h.5v-.5h-.5v.5Z"/>
  <path class="cls-1" d="M72.8,5.4h2.7v-.5h.5v-.9h.5v-.9h.5v.9h-.5v1.4h2.3v.9h-3.2v1.4h-.5v.9h-.5v-.9h.5v-1.4h-2.3v-.9Z"/>
</svg>